<!-- Generated by IcoMoon.io -->
<svg version="1.1" xmlns="http://www.w3.org/2000/svg" width="640" height="640" viewBox="0 0 640 640">
<title></title>
<g id="icomoon-ignore">
</g>
<path fill="#269f39" d="M352 320l-73.664-80.192c-6.272-6.336-6.272-16.608 0-22.976 6.272-6.304 16.48-6.304 22.72 0l89.824 91.648c6.272 6.368 6.272 16.64 0 22.944l-89.824 91.648c-6.24 6.368-16.448 6.336-22.72 0-6.272-6.304-6.272-16.576 0-22.944l73.664-80.128zM320 12.8c169.664 0 307.2 137.536 307.2 307.2 0 169.696-137.536 307.2-307.2 307.2s-307.2-137.504-307.2-307.2c0-169.664 137.536-307.2 307.2-307.2zM320 587.328c147.616 0 267.328-119.68 267.328-267.328s-119.712-267.328-267.328-267.328c-147.68 0-267.328 119.68-267.328 267.328-0.032 147.648 119.648 267.328 267.328 267.328z"></path>
</svg>
