<?xml version="1.0" encoding="UTF-8"?>
<svg width="9px" height="12px" viewBox="0 0 9 12" version="1.1" xmlns="http://www.w3.org/2000/svg" xmlns:xlink="http://www.w3.org/1999/xlink">
    <title>document-file.2@1x</title>
    <g id="1.-Design" stroke="none" stroke-width="1" fill="none" fill-rule="evenodd">
        <g id="HP" transform="translate(-352.000000, -1122.000000)" fill="#27A63B" fill-rule="nonzero">
            <g id="Group-3" transform="translate(272.000000, 885.000000)">
                <g id="Group-2" transform="translate(80.000000, 48.000000)">
                    <g id="document-file.2" transform="translate(0.000000, 189.000000)">
                        <path d="M7.15909091,4.4 L1.84090909,4.4 C1.71818182,4.4 1.63636364,4.32 1.63636364,4.2 C1.63636364,4.08 1.71818182,4 1.84090909,4 L7.15909091,4 C7.28181818,4 7.36363636,4.08 7.36363636,4.2 C7.36363636,4.32 7.28181818,4.4 7.15909091,4.4 Z" id="Path"></path>
                        <path d="M7.15909091,2.8 L4.70454545,2.8 C4.58181818,2.8 4.5,2.72 4.5,2.6 C4.5,2.48 4.58181818,2.4 4.70454545,2.4 L7.15909091,2.4 C7.28181818,2.4 7.36363636,2.48 7.36363636,2.6 C7.36363636,2.72 7.28181818,2.8 7.15909091,2.8 Z" id="Path"></path>
                        <g id="Group">
                            <path d="M8.79545455,12 L0.204545455,12 C0.0818181818,12 0,11.92 0,11.8 L0,3.4 C0,3.36 0.0409090909,3.28 0.0409090909,3.24 L3.31363636,0.04 C3.35454545,0.04 3.43636364,0 3.47727273,0 L8.79545455,0 C8.91818182,0 9,0.08 9,0.2 L9,11.8 C9,11.92 8.91818182,12 8.79545455,12 Z M0.409090909,11.6 L8.59090909,11.6 L8.59090909,0.4 L3.55909091,0.4 L0.409090909,3.48 L0.409090909,11.6 Z" id="Shape"></path>
                            <path d="M3.47727273,3.6 L0.204545455,3.6 C0.0818181818,3.6 0,3.52 0,3.4 C0,3.28 0.0818181818,3.2 0.204545455,3.2 L3.27272727,3.2 L3.27272727,0.2 C3.27272727,0.08 3.35454545,0 3.47727273,0 C3.6,0 3.68181818,0.08 3.68181818,0.2 L3.68181818,3.4 C3.68181818,3.52 3.6,3.6 3.47727273,3.6 Z" id="Path"></path>
                        </g>
                        <path d="M7.15909091,6 L1.84090909,6 C1.71818182,6 1.63636364,5.92 1.63636364,5.8 C1.63636364,5.68 1.71818182,5.6 1.84090909,5.6 L7.15909091,5.6 C7.28181818,5.6 7.36363636,5.68 7.36363636,5.8 C7.36363636,5.92 7.28181818,6 7.15909091,6 Z" id="Path"></path>
                        <path d="M7.15909091,7.6 L1.84090909,7.6 C1.71818182,7.6 1.63636364,7.52 1.63636364,7.4 C1.63636364,7.28 1.71818182,7.2 1.84090909,7.2 L7.15909091,7.2 C7.28181818,7.2 7.36363636,7.28 7.36363636,7.4 C7.36363636,7.52 7.28181818,7.6 7.15909091,7.6 Z" id="Path"></path>
                        <path d="M7.15909091,9.2 L1.84090909,9.2 C1.71818182,9.2 1.63636364,9.12 1.63636364,9 C1.63636364,8.88 1.71818182,8.8 1.84090909,8.8 L7.15909091,8.8 C7.28181818,8.8 7.36363636,8.88 7.36363636,9 C7.36363636,9.12 7.28181818,9.2 7.15909091,9.2 Z" id="Path"></path>
                        <path d="M7.15909091,10.8 L1.84090909,10.8 C1.71818182,10.8 1.63636364,10.72 1.63636364,10.6 C1.63636364,10.48 1.71818182,10.4 1.84090909,10.4 L7.15909091,10.4 C7.28181818,10.4 7.36363636,10.48 7.36363636,10.6 C7.36363636,10.72 7.28181818,10.8 7.15909091,10.8 Z" id="Path"></path>
                    </g>
                </g>
            </g>
        </g>
    </g>
</svg>