<?xml version="1.0" encoding="UTF-8"?>
<svg width="15px" height="14px" viewBox="0 0 15 14" version="1.1" xmlns="http://www.w3.org/2000/svg" xmlns:xlink="http://www.w3.org/1999/xlink">
    <title>Fanklub@1x</title>
    <g id="1.-Design" stroke="none" stroke-width="1" fill="none" fill-rule="evenodd">
        <g id="HP" transform="translate(-1525.000000, -76.000000)">
            <g id="HEADER" transform="translate(0.000000, -12.000000)">
                <g id="Fanklub" transform="translate(1526.000000, 86.000000)">
                    <g transform="translate(0.000000, 3.000000)" id="vlajka">
                        <rect id="Rectangle" x="0" y="-2.66453526e-14" width="13" height="15"></rect>
                        <g id="multiple-actions-flag.7" transform="translate(6.388306, 7.955697) rotate(15.000000) translate(-6.388306, -7.955697) translate(1.640704, 0.991469)" stroke="#27A63B" stroke-linecap="round" stroke-linejoin="round">
                            <line x1="0.264909148" y1="8.34520185" x2="0.264909148" y2="13.3452018" id="Path"></line>
                            <path d="M0.56738491,7.24530647 L1.77675985,6.82818044 C2.76445944,6.46020644 3.86230821,6.6012543 4.73325971,7.20802146 C5.8339107,7.85640097 7.1397796,8.02010916 8.35800953,7.66243249 L9.56738491,7.24530647 L9.56738491,1.25756727 C9.567609,1.07019852 9.48080668,0.894153455 9.33412212,0.78448446 C9.18743756,0.674815465 8.99877574,0.644909221 8.82713451,0.704117935 L8.35800953,0.866074687 C7.12660562,1.20681324 5.81546297,1.03712254 4.70288471,0.393021152 C3.82888474,-0.173723862 2.7560437,-0.306205437 1.77788485,0.0318226406 L0.56850991,0.448948664 L0.56738491,7.24530647 Z" id="Path"></path>
                        </g>
                    </g>
                </g>
            </g>
        </g>
    </g>
</svg>