<?xml version="1.0" encoding="UTF-8"?>
<svg width="13px" height="12px" viewBox="0 0 13 12" version="1.1" xmlns="http://www.w3.org/2000/svg" xmlns:xlink="http://www.w3.org/1999/xlink">
    <title>gallery.7@1x</title>
    <g id="1.-Design" stroke="none" stroke-width="1" fill="#fff" fill-rule="evenodd">
        <g id="HP" transform="translate(-435.000000, -1122.000000)" fill="#fff" fill-rule="nonzero">
            <g id="Group-3" transform="translate(272.000000, 885.000000)">
                <g id="Group-2" transform="translate(80.000000, 48.000000)">
                    <g id="gallery.7" transform="translate(83.000000, 189.000000)">
                        <path d="M12.6455998,11.9945922 C12.5274664,11.9945922 12.409333,11.9346193 12.409333,11.8146734 L8.56999751,3.95821544 L6.14826282,8.8160253 C6.08919612,8.87599826 6.03012942,8.99594418 5.91199602,8.99594418 C5.79386262,8.99594418 5.73479592,8.99594418 5.67572922,8.87599826 L3.84466153,6.77694462 L0.536926339,11.8746463 C0.41879294,11.9945922 0.24159284,12.0545652 0.123459441,11.9346193 C0.005326041,11.8746463 -0.0537406588,11.6947274 0.0643927408,11.5148086 L3.60839473,6.11724204 C3.66746143,6.05726908 3.72652813,5.99729612 3.84466153,5.99729612 C3.96279493,5.99729612 4.02186163,6.05726908 4.08092833,6.11724204 L5.85292932,8.15632272 L8.33373071,3.17856694 C8.39279741,3.05862102 8.51093081,2.99864806 8.56999751,2.99864806 L8.56999751,2.99864806 C8.68813091,2.99864806 8.80626431,3.05862102 8.80626431,3.17856694 L12.8818666,11.5747815 C12.9409333,11.6947274 12.8818666,11.8746463 12.7637332,11.9945922 C12.7637332,11.9945922 12.7046665,11.9945922 12.6455998,11.9945922 Z" id="Path"></path>
                        <path d="M12.7046665,11.9945922 L0.30065954,11.9945922 C0.123459441,11.9945922 0.005326041,11.8746463 0.005326041,11.6947274 L0.005326041,0.299864806 C0.005326041,0.119945922 0.123459441,0 0.30065954,0 L12.7046665,0 C12.8818666,0 13,0.119945922 13,0.299864806 L13,11.6947274 C13,11.8746463 12.8818666,11.9945922 12.7046665,11.9945922 Z M0.595993039,11.3948626 L12.409333,11.3948626 L12.409333,0.599729612 L0.595993039,0.599729612 L0.595993039,11.3948626 Z" id="Shape"></path>
                        <path d="M3.84466153,4.7978369 C3.01772773,4.7978369 2.36799403,4.13813432 2.36799403,3.29851287 C2.36799403,2.45889141 3.01772773,1.79918884 3.84466153,1.79918884 C4.67159533,1.79918884 5.32132902,2.45889141 5.32132902,3.29851287 C5.32132902,4.13813432 4.67159533,4.7978369 3.84466153,4.7978369 Z M3.84466153,2.39891845 C3.37212793,2.39891845 2.95866103,2.81872918 2.95866103,3.29851287 C2.95866103,3.77829656 3.37212793,4.19810728 3.84466153,4.19810728 C4.31719513,4.19810728 4.73066203,3.77829656 4.73066203,3.29851287 C4.73066203,2.81872918 4.31719513,2.39891845 3.84466153,2.39891845 Z" id="Shape"></path>
                    </g>
                </g>
            </g>
        </g>
    </g>
</svg>