<?xml version="1.0" encoding="UTF-8"?>
<svg width="46px" height="40px" viewBox="0 0 46 40" version="1.1" xmlns="http://www.w3.org/2000/svg" xmlns:xlink="http://www.w3.org/1999/xlink">
    <title>gallery.3@1x</title>
    <g id="1.-Design" stroke="none" stroke-width="1" fill="none" fill-rule="evenodd">
        <g id="HP" transform="translate(-136.000000, -603.000000)" fill="#FFFFFF" fill-rule="nonzero">
            <g id="TOP-ČLÁNKY" transform="translate(0.000000, 120.000000)">
                <g id="gallery.3" transform="translate(136.000000, 483.000000)">
                    <path d="M33.5419787,30.4761905 L0.958935606,30.4761905 C0.429940319,30.4761905 0.000610810285,30.0495238 0.000610810285,29.5238095 L0.000610810285,0.952380952 C0.000610810285,0.426666667 0.429940319,0 0.958935606,0 L33.5419787,0 C34.070974,0 34.5003035,0.426666667 34.5003035,0.952380952 L34.5003035,29.5238095 C34.5003035,30.0495238 34.070974,30.4761905 33.5419787,30.4761905 Z M1.9172604,28.5714286 L32.5836539,28.5714286 L32.5836539,1.9047619 L1.9172604,1.9047619 L1.9172604,28.5714286 Z" id="Shape"></path>
                    <path d="M33.5419787,30.4761905 C33.1893151,30.4761905 32.8519848,30.2838095 32.6833196,29.9504762 L22.9448231,10.5885714 L16.1656335,22.3771429 C16.0180514,22.6342857 15.7573871,22.8095238 15.4603064,22.8495238 C15.167059,22.887619 14.866145,22.7885714 14.6553136,22.5790476 L9.74485733,17.6990476 L1.76392843,30.04 C1.47834765,30.4819048 0.886102922,30.6114286 0.439523567,30.3257143 C-0.00513913849,30.0419048 -0.133554661,29.4533333 0.152026128,29.0095238 L8.77694929,15.6761905 C8.93411456,15.4342857 9.19286225,15.2761905 9.48035969,15.2438095 C9.76402383,15.2133333 10.0553546,15.3142857 10.2604361,15.5180952 L15.1229761,20.3504762 L22.1666633,8.09904762 C22.3429951,7.79428571 22.6611589,7.60190476 23.0253224,7.61904762 C23.3799025,7.62857143 23.6980664,7.83047619 23.8571483,8.1447619 L34.398721,29.0971429 C34.6363856,29.567619 34.442804,30.1390476 33.9693915,30.3752381 C33.8333094,30.4438095 33.687644,30.4761905 33.5419787,30.4761905 Z" id="Path"></path>
                    <path d="M10.5421836,13.3333333 C7.90104043,13.3333333 5.75055959,11.1961905 5.75055959,8.57142857 C5.75055959,5.94666667 7.90104043,3.80952381 10.5421836,3.80952381 C13.1833267,3.80952381 15.3338075,5.94666667 15.3338075,8.57142857 C15.3338075,11.1961905 13.1833267,13.3333333 10.5421836,13.3333333 Z M10.5421836,5.71428571 C8.95711435,5.71428571 7.66720918,6.99619048 7.66720918,8.57142857 C7.66720918,10.1466667 8.95711435,11.4285714 10.5421836,11.4285714 C12.1272528,11.4285714 13.417158,10.1466667 13.417158,8.57142857 C13.417158,6.99619048 12.1272528,5.71428571 10.5421836,5.71428571 Z" id="Shape"></path>
                    <path d="M31.6234124,40 C31.4662472,40 31.3052486,39.9619048 31.1595832,39.88 L13.9097369,30.3561905 C13.4459077,30.1009524 13.2791592,29.5219048 13.5379069,29.0609524 C13.7947379,28.6019048 14.379316,28.4342857 14.8412286,28.6914286 L31.2707489,37.7619048 L43.7596376,16.4857143 L33.0110667,9.36380952 C32.5702373,9.07238095 32.451405,8.48190476 32.7446524,8.04380952 C33.0378998,7.60761905 33.6301445,7.48761905 34.0728906,7.77904762 L45.5727881,15.3980952 C45.9944511,15.6761905 46.1247832,16.2342857 45.8698688,16.6704762 L32.4533217,39.527619 C32.2750733,39.8304762 31.9549928,40 31.6234124,40 Z" id="Path"></path>
                </g>
            </g>
        </g>
    </g>
</svg>