<?xml version="1.0" encoding="UTF-8"?>
<svg width="95px" height="104px" viewBox="0 0 95 104" version="1.1" xmlns="http://www.w3.org/2000/svg" xmlns:xlink="http://www.w3.org/1999/xlink">
    <title>Logo@1x</title>
    <g id="1.-Design" stroke="none" stroke-width="1" fill="none" fill-rule="evenodd">
        <g id="HP" transform="translate(-272.000000, -32.000000)">
            <g id="HEADER" transform="translate(0.000000, -12.000000)">
                <g id="Logo" transform="translate(272.000000, 44.000000)">
                    <path d="M93.4348762,41.8514824 C91.7323432,37.9658451 90.7604248,33.6899764 89.8186693,29.5558584 C88.8785896,25.4350817 87.9100226,21.1858955 86.2259225,17.4786973 C85.0780533,14.9538669 83.7006103,12.8793034 82.0148345,11.1416064 L81.4098991,10.5145679 L81.8372081,9.75578468 C82.180731,9.14709042 82.4672793,8.49003415 82.6867988,7.80296009 C83.3051401,5.8651444 83.1978939,4.27086574 83.1710823,3.97068775 L82.8560467,0.536985071 L79.3923305,0.785465741 C78.4857652,0.850504305 77.5456855,0.88218976 76.5251711,0.88218976 C73.8708283,0.88218976 71.2164856,0.670397511 68.404625,0.446931674 C65.6413603,0.226801148 62.7909582,0 59.9941791,0 C56.9795562,0 52.456784,0.221798182 47.9675263,2.14460497 L47.5,2.34472363 L47.0324737,2.14460497 C42.5415403,0.221798182 38.0170924,0 35.0041452,0 C32.2040147,0 29.3552882,0.226801148 26.6020779,0.445264019 C23.7818387,0.670397511 21.1291717,0.88218976 18.4765046,0.88218976 C17.4526388,0.88218976 16.5142348,0.850504305 15.6059938,0.785465741 L12.1439533,0.536985071 L11.8305934,3.97068775 C11.7903761,4.39260459 11.7116172,5.91517406 12.3132012,7.80296009 C12.5310449,8.49003415 12.8175933,9.14709042 13.1611162,9.75578468 L13.5901009,10.5145679 L12.9834897,11.1416064 C11.297714,12.8793034 9.92194666,14.9538669 8.77407747,17.4786973 C7.0883017,21.1892308 6.11973471,25.4400847 5.18300642,29.5525231 C4.24125097,33.6883088 3.26598109,37.9658451 1.56512383,41.8514824 L0,45.4286035 L3.74188598,46.6009653 C3.90275524,46.650995 5.35393001,47.091256 7.22235942,47.091256 C8.37693149,47.091256 9.61193819,46.9294934 10.5252064,46.6610009 L11.5892895,46.345814 L11.9696783,47.3814281 C12.8175933,49.6944663 13.2918225,52.4410949 13.5565865,56.5618716 C13.8682707,61.4247551 13.4191773,67.0297452 12.2914168,72.3495662 L11.5155578,76.0033995 L15.2373351,76.5453875 C15.3864743,76.5687347 15.9377866,76.6404439 16.7371058,76.6404439 C17.7123756,76.6404439 19.2121463,76.5303786 20.814136,76.0084024 C21.0403584,75.9350256 21.2649051,75.8533105 21.4844246,75.7665924 L22.3222853,75.4397319 L22.8618676,76.1534884 C28.0398469,83.0108879 37.8243844,95.479948 45.15399,101.935442 L47.5,104 L49.84601,101.935442 C57.1789671,95.4782804 66.9601531,83.0108879 72.1381324,76.1534884 L72.6777147,75.4397319 L73.5138997,75.7665924 C73.7317435,75.8533105 73.9579659,75.9333579 74.1841882,76.0084024 C75.7878537,76.5303786 77.2876244,76.6404439 78.2628942,76.6404439 C79.0839977,76.6404439 79.6570945,76.562064 79.7643406,76.5453875 L83.4827665,76.0033995 L82.7085832,72.3495662 C81.5824984,67.0297452 81.1334051,61.4247551 81.4434135,56.5618716 C81.6445001,53.4400205 81.9695901,50.1664128 82.9901044,47.3814281 L83.3721689,46.345814 L84.4345763,46.6610009 C85.3495202,46.9294934 86.5979327,47.091256 87.7793163,47.091256 C89.6427185,47.091256 91.095569,46.650995 91.2564383,46.6009653 L95,45.4286035 L93.4348762,41.8514824" id="Fill-1" fill="#17A447"></path>
                    <path d="M90.7457912,44.22941 C90.6969697,44.2428151 89.510101,44.6097796 87.96633,44.6097796 C86.6363636,44.6097796 84.4006734,44.3433533 82.6481481,42.7933888 C76.8821549,52.5137605 79.5555556,68.1122677 80.5555556,72.8275109 L80.8148148,74.0490505 L79.5690236,74.2333706 C79.520202,74.2400731 79.0808081,74.3003961 78.4057239,74.3003961 C76.9276094,74.3003961 74.3535354,74.0105108 72.2222222,72.2594699 C68.9612795,76.6680715 56.8299663,92.7860262 48.2845118,100.307962 L47.5,101 L46.7138047,100.307962 C38.1717172,92.7860262 26.0387205,76.6680715 22.7760943,72.2594699 C20.6464646,74.0105108 18.0707071,74.3003961 16.5942761,74.3003961 C15.9175084,74.3003961 15.4781145,74.2400731 15.4309764,74.2333706 L14.1851852,74.0507261 L14.4444444,72.8275109 C16.456229,63.3350259 16.8198653,50.7342338 12.1212121,42.8067939 C10.8164983,43.9931451 9.08754209,44.6097796 7.03535354,44.6097796 C5.49158249,44.6097796 4.3013468,44.2444907 4.25420875,44.22941 L3,43.8356352 L3.52356902,42.6375546 C5.32323232,38.5305677 6.32659933,34.1219661 7.2962963,29.8608206 C9.06060606,22.1177008 10.7340067,14.7717071 16.8855219,10.4619681 C13.6986532,7.85132528 14.0050505,4.03589926 14.0218855,3.84990352 L14.1279461,2.70041637 L15.2878788,2.7825226 C16.2575758,2.85289936 17.2558923,2.88641211 18.3400673,2.88641211 C21.1043771,2.88641211 23.9444444,2.66020108 26.6936027,2.4406926 C29.4158249,2.22453539 32.2323232,2 34.9461279,2 C40.0673401,2 44.0774411,2.83781862 47.5,4.63075048 C50.9225589,2.83781862 54.9326599,2 60.0488215,2 C62.7676768,2 65.5824916,2.22453539 68.3047138,2.4406926 C71.0538721,2.66020108 73.8956229,2.88641211 76.6599327,2.88641211 C77.7457912,2.88641211 78.7424242,2.85289936 79.7121212,2.7825226 L80.8720539,2.70041637 L80.976431,3.84990352 C80.993266,4.03589926 81.2996633,7.85132528 78.1127946,10.4619681 C84.2659933,14.7717071 85.9393939,22.1177008 87.7037037,29.8608206 C88.6750842,34.1219661 89.6767677,38.5305677 91.476431,42.6375546 L92,43.8356352 L90.7457912,44.22941" id="Fill-2" fill="#FFFFFE"></path>
                    <path d="M80.8433686,40.6234406 L81.8442258,39.2232399 L82.7881781,40.6601126 C83.9647712,42.4420347 86.0752745,42.7087396 87.2301098,42.7087396 C87.5045924,42.7087396 87.7623382,42.6920705 88,42.6704008 C86.4702617,38.7931782 85.5581092,34.7842701 84.6710618,30.8920455 C82.8149569,22.737543 81.2115769,15.6948666 74.6775524,12.1210209 L72.710985,11.0475337 L74.7177205,10.0490572 C76.9771809,8.92722971 77.6617137,7.05029395 77.8625546,5.84678807 C77.2600318,5.87012475 76.6390987,5.88179309 75.989713,5.88179309 C73.147814,5.88179309 70.2741152,5.65342701 67.4958158,5.43172856 C64.7124954,5.21003011 62.0814794,5 59.4805895,5 C54.4528718,5 50.7841777,5.81011615 47.5824387,7.62871021 L47,7.96042443 L46.4158877,7.62871021 C43.2141487,5.81011615 39.5454545,5 34.5210842,5 C31.9151733,5 29.2858309,5.21003011 26.5041842,5.43172856 C23.7242111,5.65342701 20.852186,5.88179309 18.010287,5.88179309 C17.3609013,5.88179309 16.7399682,5.87012475 16.1340981,5.84678807 C16.3332653,7.05029395 17.0177981,8.9255628 19.2806058,10.0490572 L21.289015,11.0475337 L19.3224476,12.1210209 C12.7884231,15.6948666 11.1833694,22.737543 9.32726456,30.8920455 C8.44356452,34.7842701 7.52973834,38.7931782 6,42.6704008 C6.23766175,42.6920705 6.49708128,42.7087396 6.77156386,42.7087396 C8.66281586,42.7087396 10.0770707,42.0186407 10.9724864,40.6601126 L11.9181124,39.2232399 L12.917296,40.6234406 C15.7307425,44.5623387 17.3726171,49.9264411 17.7977303,56.5590586 C18.1073601,61.4097541 17.7240887,66.9255449 16.7165367,72.2313056 C18.082255,72.1646293 20.1977793,71.7512367 21.663918,70.014321 L22.6363228,68.8624892 L23.5200229,70.0809973 C23.6622852,70.2776921 37.5136139,89.2737489 47,98 C56.4897334,89.2704151 70.3360411,70.2776921 70.4783035,70.0809973 L71.3636772,68.8624892 L72.336082,70.014321 C73.800547,71.7512367 75.9143977,72.1646293 77.2801159,72.2313056 C76.5001837,68.1673896 75.763767,62.5099118 76.0834388,56.570727 C76.4399314,49.9131058 78.0416378,44.5490034 80.8433686,40.6234406" id="Fill-3" fill="#131111"></path>
                    <polyline id="Fill-4" fill="#FFFFFE" points="49 53.1174841 56.1189701 49.6669369 56.1189701 40.0787056 66 35 61.3663806 47.6047156 61.3093617 47.7617889 60.1471836 60 49 55.672882 49 53.1174841"></polyline>
                    <polyline id="Fill-5" fill="#FFFFFE" points="46 53.1466595 38.8283604 49.6659461 38.8283604 40.0580963 29 35 33.6856721 47.7609268 34.8441162 60 46 55.6613524 46 53.1466595"></polyline>
                    <polyline id="Fill-6" fill="#FFFFFE" points="48.0094235 57 38 60.6004479 40.3096034 67 55.6886833 67 58 60.5940499 48.0094235 57"></polyline>
                    <path d="M53.4458523,36.6707019 L53.4458523,28.2071785 L55.8833035,28.2071785 L55.8833035,31.8957736 C59.9259055,30.6678879 64.0058761,29.3807476 66,28.6861527 L59.1921223,15 L47.4023321,17.8590315 L35.0961759,15 L29,28.6861527 C30.9941239,29.3807476 35.0791902,30.6695338 39.1251894,31.8974196 L39.1251894,28.2071785 L41.560942,28.2071785 L41.560942,36.6707019 L41.549052,36.6707019 L41.549052,46 L53.4492494,46 L53.4492494,36.6707019 L53.4458523,36.6707019" id="Fill-7" fill="#FFFFFE"></path>
                </g>
            </g>
        </g>
    </g>
</svg>