<?xml version="1.0" encoding="UTF-8"?>
<svg width="13px" height="12px" viewBox="0 0 13 12" version="1.1" xmlns="http://www.w3.org/2000/svg" xmlns:xlink="http://www.w3.org/1999/xlink">
    <title>justify-left.3@1x</title>
    <g id="1.-Design" stroke="none" stroke-width="1" fill="none" fill-rule="evenodd">
        <g id="Roster" transform="translate(-818.000000, -184.000000)" fill="#27A63B" fill-rule="nonzero">
            <g id="CONTENT" transform="translate(272.000000, 120.000000)">
                <g id="justify-left.3" transform="translate(546.000000, 64.000000)">
                    <path d="M0.270833333,0.75 L12.7291667,0.75 C12.8786667,0.75 13,0.582 13,0.375 C13,0.168 12.8786667,0 12.7291667,0 L0.270833333,0 C0.121333333,0 0,0.168 0,0.375 C0,0.582 0.121333333,0.75 0.270833333,0.75 Z" id="Path"></path>
                    <path d="M12.7291667,2.25 L0.270833333,2.25 C0.121333333,2.25 0,2.418 0,2.625 C0,2.832 0.121333333,3 0.270833333,3 L12.7291667,3 C12.8786667,3 13,2.832 13,2.625 C13,2.418 12.8786667,2.25 12.7291667,2.25 Z" id="Path"></path>
                    <path d="M12.7291667,4.5 L0.270833333,4.5 C0.121333333,4.5 0,4.668 0,4.875 C0,5.082 0.121333333,5.25 0.270833333,5.25 L12.7291667,5.25 C12.8786667,5.25 13,5.082 13,4.875 C13,4.668 12.8786667,4.5 12.7291667,4.5 Z" id="Path"></path>
                    <path d="M12.7291667,6.75 L0.270833333,6.75 C0.121333333,6.75 0,6.918 0,7.125 C0,7.332 0.121333333,7.5 0.270833333,7.5 L12.7291667,7.5 C12.8786667,7.5 13,7.332 13,7.125 C13,6.918 12.8786667,6.75 12.7291667,6.75 Z" id="Path"></path>
                    <path d="M12.7291667,9 L0.270833333,9 C0.121333333,9 0,9.168 0,9.375 C0,9.582 0.121333333,9.75 0.270833333,9.75 L12.7291667,9.75 C12.8786667,9.75 13,9.582 13,9.375 C13,9.168 12.8786667,9 12.7291667,9 Z" id="Path"></path>
                    <path d="M8.9375,11.25 L0.270833333,11.25 C0.121333333,11.25 0,11.418 0,11.625 C0,11.832 0.121333333,12 0.270833333,12 L8.9375,12 C9.087,12 9.20833333,11.832 9.20833333,11.625 C9.20833333,11.418 9.087,11.25 8.9375,11.25 Z" id="Path"></path>
                </g>
            </g>
        </g>
    </g>
</svg>