<?xml version="1.0" encoding="UTF-8"?>
<svg width="40px" height="40px" viewBox="0 0 40 40" version="1.1" xmlns="http://www.w3.org/2000/svg" xmlns:xlink="http://www.w3.org/1999/xlink">
    <title>play.17@1x</title>
    <g id="1.-Design" stroke="none" stroke-width="1" fill="none" fill-rule="evenodd">
        <g id="HP" transform="translate(-460.000000, -2283.000000)" fill="#FFFFFF" fill-rule="nonzero">
            <g id="YOUTUBE-+-TABULKA" transform="translate(0.000000, 2097.000000)">
                <g id="článek" transform="translate(272.000000, 116.000000)">
                    <g id="play.17" transform="translate(188.000000, 70.000000)">
                        <path d="M16.1344538,28.907563 C15.7983193,28.907563 15.2941176,28.7394958 14.9579832,28.5714286 C14.2857143,28.2352941 13.7815126,27.394958 13.7815126,26.5546218 L13.7815126,13.2773109 C13.7815126,12.4369748 14.2857143,11.5966387 14.9579832,11.2605042 C15.6302521,10.9243697 16.6386555,10.9243697 17.3109244,11.4285714 L27.394958,17.9831933 C28.0672269,18.487395 28.4033613,19.1596639 28.4033613,20 C28.4033613,20.8403361 28.0672269,21.512605 27.394958,22.0168067 L17.3109244,28.5714286 C17.1428571,28.7394958 16.6386555,28.907563 16.1344538,28.907563 Z M16.1344538,12.7731092 C15.9663866,12.7731092 15.9663866,12.7731092 15.7983193,12.7731092 C15.6302521,12.9411765 15.4621849,13.1092437 15.4621849,13.2773109 L15.4621849,26.5546218 C15.4621849,26.7226891 15.6302521,27.0588235 15.7983193,27.0588235 C15.9663866,27.2268908 16.302521,27.2268908 16.4705882,27.0588235 L26.5546218,20.5042017 C26.7226891,20.3361345 26.8907563,20.1680672 26.8907563,20 C26.8907563,19.8319328 26.7226891,19.6638655 26.5546218,19.4957983 L16.4705882,12.9411765 C16.4705882,12.7731092 16.302521,12.7731092 16.1344538,12.7731092 Z" id="Shape"></path>
                        <path d="M20,40 C8.90756303,40 0,31.092437 0,20 C0,8.90756303 8.90756303,0 20,0 C31.092437,0 40,8.90756303 40,20 C40,31.092437 31.092437,40 20,40 Z M20,1.68067227 C9.91596639,1.68067227 1.68067227,9.91596639 1.68067227,20 C1.68067227,30.0840336 9.91596639,38.3193277 20,38.3193277 C30.0840336,38.3193277 38.3193277,30.0840336 38.3193277,20 C38.3193277,9.91596639 30.0840336,1.68067227 20,1.68067227 Z" id="Shape"></path>
                    </g>
                </g>
            </g>
        </g>
    </g>
</svg>