<?xml version="1.0" encoding="UTF-8"?>
<svg width="19px" height="16px" viewBox="0 0 19 16" version="1.1" xmlns="http://www.w3.org/2000/svg" xmlns:xlink="http://www.w3.org/1999/xlink">
    <title>E-shop@1x</title>
    <g id="1.-Design" stroke="none" stroke-width="1" fill="none" fill-rule="evenodd">
        <g id="HP" transform="translate(-1391.000000, -16.000000)" fill="#27A63B" fill-rule="nonzero">
            <g id="HEADER" transform="translate(0.000000, -12.000000)">
                <g id="E-shop" transform="translate(1359.000000, 12.000000)">
                    <g transform="translate(32.000000, 16.000000)">
                        <path d="M9.5,4 C9.40043959,4 9.30087919,3.9608 9.22465325,3.8832 L6.11339054,0.6832 C6.00294071,0.568 5.96949463,0.396 6.02938644,0.2464 C6.08927825,0.0968 6.23161852,0 6.38873729,0 L12.6112627,0 C12.7683815,0 12.9107218,0.0976 12.9706136,0.2472 C13.0305054,0.3968 12.9970593,0.5688 12.8866095,0.6832 L9.77534675,3.8832 C9.69912081,3.9608 9.59956041,4 9.5,4 Z M7,1 L9,3 L11,1 L7,1 Z" id="Shape"></path>
                        <path d="M14.4570137,16 L4.54374684,16 C4.3157417,16 4.13069405,15.8208 4.13069405,15.6 L4.13069405,5.7552 L2.19595481,6.3792 C1.99934168,6.4432 1.78785866,6.3568 1.69616094,6.1792 L0.0439497986,2.9792 C-0.00726874671,2.88 -0.0138775913,2.7656 0.0249493705,2.6624 C0.0646024379,2.5592 0.146386889,2.476 0.250476191,2.432 L6.03321518,0.032 C6.08443373,0.0112 6.14060891,0 6.19595798,0 L12.8048025,0 C12.8601516,0 12.9163268,0.0112 12.9675453,0.0328 L18.7502843,2.4328 C18.8543736,2.476 18.9361581,2.5592 18.974985,2.6632 C19.013812,2.7664 19.0072032,2.8808 18.9568107,2.98 L17.3045996,6.18 C17.2120758,6.3584 16.9997666,6.444 16.8048057,6.38 L14.8700665,5.7552 L14.8700665,15.6 C14.8700665,15.8208 14.6850188,16 14.4570137,16 Z M4.96776539,15 L14.0322346,15 L14.0322346,5.27777778 C14.0322346,5.15255556 14.0956859,5.03511111 14.2036355,4.962 C14.310761,4.88888889 14.4475521,4.86788889 14.5744547,4.90911111 L16.7079011,5.58033333 L18,3.13966667 L12.7112942,1 L6.28870577,1 L1,3.13888889 L2.29209889,5.57955556 L4.42554532,4.90833333 C4.55162385,4.86788889 4.68841493,4.88888889 4.79636452,4.962 C4.90431411,5.03511111 4.96776539,5.15255556 4.96776539,5.27777778 L4.96776539,15 Z" id="Shape"></path>
                        <path d="M8,10 L7.33333333,10 C7.14933333,10 7,9.8208 7,9.6 C7,9.3792 7.14933333,9.2 7.33333333,9.2 L8,9.2 C8.18333333,9.2 8.33333333,9.0208 8.33333333,8.8 C8.33333333,8.5792 8.18333333,8.4 8,8.4 L7.33333333,8.4 C7.14933333,8.4 7,8.2208 7,8 L7,6.4 C7,6.1784 7.14933333,6 7.33333333,6 L8.66666667,6 C8.85066667,6 9,6.1792 9,6.4 C9,6.6208 8.85066667,6.8 8.66666667,6.8 L7.66666667,6.8 L7.66666667,7.6 L8,7.6 C8.55133333,7.6 9,8.1384 9,8.8 C9,9.4616 8.55133333,10 8,10 Z" id="Path"></path>
                        <path d="M11.6666466,10 C11.4826356,10 11.3332933,9.82077456 11.3332933,9.59994321 L11.3332933,9.19988643 L10.3332332,9.19988643 C10.2098925,9.19988643 10.0972191,9.11827484 10.0398823,8.98865645 C9.98121211,8.85823793 9.98787918,8.70061556 10.0558833,8.57819818 L11.3892967,6.17785747 C11.4919695,5.99303123 11.6993153,5.94582453 11.8513244,6.06664168 C12.0040002,6.18905906 12.0460028,6.43709427 11.9439966,6.62112039 L10.956604,8.39977286 L11.6666466,8.39977286 C11.8506577,8.39977286 12,8.5789983 12,8.79982964 L12,9.59994321 C12,9.82077456 11.8506577,10 11.6666466,10 Z" id="Path"></path>
                    </g>
                </g>
            </g>
        </g>
    </g>
</svg>