<?xml version="1.0" encoding="UTF-8"?>
<svg width="28px" height="24px" viewBox="0 0 28 24" version="1.1" xmlns="http://www.w3.org/2000/svg" xmlns:xlink="http://www.w3.org/1999/xlink">
    <title>gallery.3@1x</title>
    <g id="1.-Design" stroke="none" stroke-width="1" fill="none" fill-rule="evenodd">
        <g id="Article" transform="translate(-1003.000000, -2267.000000)" fill="#000000" fill-rule="nonzero">
            <g id="CONTENT" transform="translate(256.000000, 710.000000)">
                <g id="GALERIE" transform="translate(0.000000, 1032.000000)">
                    <g id="gallery.3" transform="translate(747.000000, 525.000000)">
                        <path d="M20.4168566,18.2857143 L0.583699934,18.2857143 C0.261702803,18.2857143 0.000371797565,18.0297143 0.000371797565,17.7142857 L0.000371797565,0.571428571 C0.000371797565,0.256 0.261702803,0 0.583699934,0 L20.4168566,0 C20.7388537,0 21.0001847,0.256 21.0001847,0.571428571 L21.0001847,17.7142857 C21.0001847,18.0297143 20.7388537,18.2857143 20.4168566,18.2857143 Z M1.16702807,17.1428571 L19.8335284,17.1428571 L19.8335284,1.14285714 L1.16702807,1.14285714 L1.16702807,17.1428571 Z" id="Shape"></path>
                        <path d="M20.4168566,18.2857143 C20.2021918,18.2857143 19.9968603,18.1702857 19.8941946,17.9702857 L13.966414,6.35314286 L9.83995081,13.4262857 C9.75011827,13.5805714 9.59145302,13.6857143 9.4106213,13.7097143 C9.23212289,13.7325714 9.04895785,13.6731429 8.92062566,13.5474286 L5.93165229,10.6194286 L1.07369557,18.024 C0.899863784,18.2891429 0.539366996,18.3668571 0.267536084,18.1954286 C-0.00312817126,18.0251429 -0.0812941416,17.672 0.0925376431,17.4057143 L5.34249087,9.40571429 C5.43815669,9.26057143 5.59565528,9.16571429 5.77065372,9.14628571 C5.94331885,9.128 6.12065061,9.18857143 6.24548283,9.31085714 L9.20528979,12.2102857 L13.4927516,4.85942857 C13.600084,4.67657143 13.7937489,4.56114286 14.0154136,4.57142857 C14.231245,4.57714286 14.42491,4.69828571 14.5217424,4.88685714 L20.9383519,17.4582857 C21.0830173,17.7405714 20.965185,18.0834286 20.6770209,18.2251429 C20.5941883,18.2662857 20.5055225,18.2857143 20.4168566,18.2857143 Z" id="Path"></path>
                        <path d="M6.4169813,8 C4.80932896,8 3.50034062,6.71771429 3.50034062,5.14285714 C3.50034062,3.568 4.80932896,2.28571429 6.4169813,2.28571429 C8.02463364,2.28571429 9.33362198,3.568 9.33362198,5.14285714 C9.33362198,6.71771429 8.02463364,8 6.4169813,8 Z M6.4169813,3.42857143 C5.45215656,3.42857143 4.66699689,4.19771429 4.66699689,5.14285714 C4.66699689,6.088 5.45215656,6.85714286 6.4169813,6.85714286 C7.38180604,6.85714286 8.16696571,6.088 8.16696571,5.14285714 C8.16696571,4.19771429 7.38180604,3.42857143 6.4169813,3.42857143 Z" id="Shape"></path>
                        <path d="M19.2490336,24 C19.1533678,24 19.0553687,23.9771429 18.9667028,23.928 L8.46679637,18.2137143 C8.18446555,18.0605714 8.08296646,17.7131429 8.24046505,17.4365714 C8.396797,17.1611429 8.75262716,17.0605714 9.03379132,17.2148571 L19.0343689,22.6571429 L26.6363012,9.89142857 L20.0936928,5.61828571 C19.8253618,5.44342857 19.7530292,5.08914286 19.9315276,4.82628571 C20.110026,4.56457143 20.4705228,4.49257143 20.7400204,4.66742857 L27.739958,9.23885714 C27.9966224,9.40571429 28.075955,9.74057143 27.9207897,10.0022857 L19.7541958,23.7165714 C19.6456968,23.8982857 19.4508652,24 19.2490336,24 Z" id="Path"></path>
                    </g>
                </g>
            </g>
        </g>
    </g>
</svg>