<?xml version="1.0" encoding="UTF-8"?>
<svg width="18px" height="16px" viewBox="0 0 18 16" version="1.1" xmlns="http://www.w3.org/2000/svg" xmlns:xlink="http://www.w3.org/1999/xlink">
    <title>Vstupenka@1x</title>
    <g id="1.-Design" stroke="none" stroke-width="1" fill="none" fill-rule="evenodd">
        <g id="HP" transform="translate(-791.000000, -1120.000000)" stroke="#27A63B">
            <g id="Group-3" transform="translate(272.000000, 885.000000)">
                <g id="Group-2" transform="translate(520.000000, 48.000000)">
                    <g id="Vstupenka" transform="translate(0.000000, 187.000000)">
                        <g id="Group">
                            <path d="M14.4516129,4.38709677 C14.0634839,4.77522581 13.7535484,4.90322581 13.1612903,4.90322581 C11.9767742,4.90322581 11.0967742,4.02322581 11.0967742,2.83870968 C11.0967742,2.24645161 11.2247742,1.93651613 11.6129032,1.5483871 L10.0645161,0 L0,10.0645161 L1.5483871,11.6129032 C1.93651613,11.2247742 2.24645161,11.0967742 2.83870968,11.0967742 C4.02322581,11.0967742 4.90322581,11.9767742 4.90322581,13.1612903 C4.90322581,13.7535484 4.77522581,14.0634839 4.38709677,14.4516129 L5.93548387,16 L16,5.93548387 L14.4516129,4.38709677 Z" id="Path"></path>
                            <line x1="6" y1="4" x2="7" y2="5" id="Path"></line>
                            <line x1="11" y1="9" x2="12" y2="10" id="Path"></line>
                        </g>
                        <line x1="8" y1="5" x2="9" y2="6" id="Path"></line>
                        <line x1="9" y1="7" x2="10" y2="8" id="Path"></line>
                    </g>
                </g>
            </g>
        </g>
    </g>
</svg>