<svg xmlns="http://www.w3.org/2000/svg" width="640" height="640" viewBox="0 0 640 640"><path fill="#269f39" d="M352 320l-73.664-80.192c-6.272-6.336-6.272-16.608 0-22.976 6.272-6.304 16.48-6.304 22.72 0l89.824 91.648c6.272 6.368 6.272 16.64 0 22.944l-89.824 91.648c-6.24 6.368-16.448 6.336-22.72 0-6.272-6.304-6.272-16.576 0-22.944L352 320zM320 12.8c169.664 0 307.2 137.536 307.2 307.2 0 169.696-137.536 307.2-307.2 307.2S12.8 489.696 12.8 320C12.8 150.336 150.336 12.8 320 12.8zm0 574.528c147.616 0 267.328-119.68 267.328-267.328S467.616 52.672 320 52.672C172.32 52.672 52.672 172.352 52.672 320 52.64 467.648 172.32 587.328 320 587.328z"/></svg>