<svg width="9" height="12" viewBox="0 0 9 12" xmlns="http://www.w3.org/2000/svg"><g fill="#27A63B" fill-rule="nonzero"><path d="M7.16 4.4H1.84c-.122 0-.204-.08-.204-.2 0-.12.082-.2.205-.2h5.318c.123 0 .205.08.205.2 0 .12-.082.2-.205.2zM7.16 2.8H4.704c-.123 0-.205-.08-.205-.2 0-.12.082-.2.205-.2h2.454c.123 0 .205.08.205.2 0 .12-.082.2-.205.2z"/><path d="M8.795 12H.205C.082 12 0 11.92 0 11.8V3.4c0-.04.04-.12.04-.16L3.315.04c.04 0 .122-.04.163-.04h5.318C8.918 0 9 .08 9 .2v11.6c0 .12-.082.2-.205.2zM.41 11.6h8.182V.4H3.559L.41 3.48v8.12z"/><path d="M3.477 3.6H.205C.082 3.6 0 3.52 0 3.4c0-.12.082-.2.205-.2h3.068v-3c0-.12.082-.2.204-.2.123 0 .205.08.205.2v3.2c0 .12-.082.2-.205.2zM7.16 6H1.84c-.122 0-.204-.08-.204-.2 0-.12.082-.2.205-.2h5.318c.123 0 .205.08.205.2 0 .12-.082.2-.205.2zM7.16 7.6H1.84c-.122 0-.204-.08-.204-.2 0-.12.082-.2.205-.2h5.318c.123 0 .205.08.205.2 0 .12-.082.2-.205.2zM7.16 9.2H1.84c-.122 0-.204-.08-.204-.2 0-.12.082-.2.205-.2h5.318c.123 0 .205.08.205.2 0 .12-.082.2-.205.2zM7.16 10.8H1.84c-.122 0-.204-.08-.204-.2 0-.12.082-.2.205-.2h5.318c.123 0 .205.08.205.2 0 .12-.082.2-.205.2z"/></g></svg>