<svg width="13" height="12" viewBox="0 0 13 12" xmlns="http://www.w3.org/2000/svg"><g fill-rule="nonzero" fill="#fff"><path d="M12.646 11.995c-.119 0-.237-.06-.237-.18L8.57 3.958 6.148 8.816c-.059.06-.118.18-.236.18s-.177 0-.236-.12l-1.831-2.1-3.308 5.099c-.118.12-.295.18-.414.06-.118-.06-.177-.24-.059-.42l3.544-5.398c.06-.06.119-.12.237-.12s.177.06.236.12l1.772 2.04 2.48-4.978c.06-.12.178-.18.237-.18.118 0 .236.06.236.18l4.076 8.396c.059.12 0 .3-.118.42h-.118z"/><path d="M12.705 11.995H.3c-.178 0-.296-.12-.296-.3V.3c0-.18.118-.3.296-.3h12.404c.177 0 .295.12.295.3v11.395c0 .18-.118.3-.295.3zm-12.109-.6h11.813V.6H.596v10.795z"/><path d="M3.845 4.798c-.827 0-1.477-.66-1.477-1.5S3.018 1.8 3.845 1.8c.827 0 1.476.66 1.476 1.5s-.65 1.499-1.476 1.499zm0-2.4c-.473 0-.886.42-.886.9 0 .48.413.9.886.9.472 0 .886-.42.886-.9 0-.48-.414-.9-.886-.9z"/></g></svg>