<svg width="46" height="40" viewBox="0 0 46 40" xmlns="http://www.w3.org/2000/svg"><g fill="#FFF" fill-rule="nonzero"><path d="M33.542 30.476H.959A.956.956 0 010 29.524V.952C0 .427.43 0 .959 0h32.583c.529 0 .958.427.958.952v28.572c0 .526-.429.952-.958.952zM1.917 28.571h30.667V1.905H1.917V28.57z"/><path d="M33.542 30.476a.96.96 0 01-.859-.526L22.945 10.59l-6.78 11.788a.96.96 0 01-1.51.202l-4.91-4.88L1.764 30.04a.96.96 0 01-1.324.286.95.95 0 01-.288-1.316l8.625-13.334a.967.967 0 01.703-.432c.284-.03.575.07.78.274l4.863 4.832L22.167 8.1a.935.935 0 01.858-.48.96.96 0 01.832.526L34.4 29.097a.95.95 0 01-.43 1.278.945.945 0 01-.427.101zM10.542 13.333c-2.641 0-4.791-2.137-4.791-4.762 0-2.624 2.15-4.761 4.791-4.761 2.641 0 4.792 2.137 4.792 4.761 0 2.625-2.15 4.762-4.792 4.762zm0-7.619a2.87 2.87 0 00-2.875 2.857 2.87 2.87 0 002.875 2.858 2.87 2.87 0 002.875-2.858 2.87 2.87 0 00-2.875-2.857z"/><path d="M31.623 40a.946.946 0 01-.463-.12l-17.25-9.524a.947.947 0 01-.372-1.295.96.96 0 011.303-.37l16.43 9.07L43.76 16.487 33.01 9.364a.948.948 0 01-.266-1.32.962.962 0 011.328-.265l11.5 7.62a.95.95 0 01.297 1.271L32.453 39.528a.96.96 0 01-.83.472z"/></g></svg>