<svg width="95" height="104" viewBox="0 0 95 104" xmlns="http://www.w3.org/2000/svg"><g fill="none" fill-rule="evenodd"><path d="M93.435 41.851c-1.703-3.885-2.675-8.161-3.616-12.295-.94-4.12-1.909-8.37-3.593-12.077-1.148-2.525-2.525-4.6-4.211-6.337l-.605-.627.427-.76c.344-.608.63-1.265.85-1.952.618-1.938.51-3.532.484-3.832L82.856.537l-3.464.248c-.906.066-1.846.097-2.867.097-2.654 0-5.309-.212-8.12-.435C65.64.227 62.79 0 59.995 0c-3.015 0-7.538.222-12.027 2.145l-.468.2-.468-.2C42.542.222 38.017 0 35.004 0c-2.8 0-5.649.227-8.402.445-2.82.225-5.473.437-8.125.437a39.89 39.89 0 01-2.871-.097L12.144.537l-.313 3.434c-.04.422-.12 1.944.482 3.832.218.687.505 1.344.848 1.953l.43.759-.608.627c-1.685 1.737-3.061 3.812-4.209 6.337-1.686 3.71-2.654 7.961-3.591 12.074-.942 4.135-1.917 8.413-3.618 12.298L0 45.43 3.742 46.6c.16.05 1.612.49 3.48.49 1.155 0 2.39-.162 3.303-.43l1.064-.315.38 1.035c.849 2.313 1.323 5.06 1.588 9.18.311 4.864-.138 10.469-1.266 15.789l-.775 3.653 3.721.542c.15.024.7.095 1.5.095.975 0 2.475-.11 4.077-.632.226-.073.45-.155.67-.241l.838-.327.54.713c5.178 6.858 14.962 19.327 22.292 25.782L47.5 104l2.346-2.065c7.333-6.457 17.114-18.924 22.292-25.782l.54-.713.836.327c.218.086.444.166.67.241 1.604.522 3.104.632 4.079.632.821 0 1.394-.078 1.501-.095l3.719-.542-.774-3.653c-1.127-5.32-1.576-10.925-1.266-15.788.202-3.122.527-6.396 1.547-9.18l.382-1.036 1.063.315c.915.268 2.163.43 3.344.43 1.864 0 3.317-.44 3.477-.49L95 45.429l-1.565-3.578" fill="#17A447"/><path d="M90.746 44.23c-.049.013-1.236.38-2.78.38-1.33 0-3.565-.267-5.318-1.817-5.766 9.72-3.092 25.32-2.092 30.035l.259 1.221-1.246.184c-.049.007-.488.067-1.163.067-1.478 0-4.052-.29-6.184-2.04-3.26 4.408-15.392 20.526-23.937 28.048L47.5 101l-.786-.692c-8.542-7.522-20.675-23.64-23.938-28.049-2.13 1.752-4.705 2.041-6.182 2.041-.676 0-1.116-.06-1.163-.067l-1.246-.182.26-1.223c2.011-9.493 2.375-22.094-2.324-30.021-1.305 1.186-3.033 1.803-5.086 1.803a10.23 10.23 0 01-2.78-.38L3 43.835l.524-1.198c1.8-4.107 2.803-8.516 3.772-12.777 1.765-7.743 3.438-15.09 9.59-19.399-3.187-2.61-2.88-6.426-2.864-6.612l.106-1.15 1.16.083c.97.07 1.968.103 3.052.103 2.764 0 5.604-.226 8.354-.445C29.416 2.225 32.232 2 34.946 2c5.121 0 9.131.838 12.554 2.63C50.923 2.839 54.933 2 60.049 2c2.719 0 5.533.225 8.256.44 2.749.22 5.59.446 8.355.446a41.83 41.83 0 003.052-.103l1.16-.083.104 1.15c.017.186.324 4.001-2.863 6.612 6.153 4.31 7.826 11.656 9.59 19.399.972 4.261 1.974 8.67 3.773 12.777L92 43.836l-1.254.393" fill="#FFFFFE"/><path d="M80.843 40.623l1.001-1.4.944 1.437c1.177 1.782 3.287 2.049 4.442 2.049.275 0 .532-.017.77-.039-1.53-3.877-2.442-7.886-3.329-11.778-1.856-8.154-3.46-15.197-9.993-18.771l-1.967-1.073 2.007-.999c2.26-1.122 2.944-2.999 3.145-4.202-.603.023-1.224.035-1.873.035-2.842 0-5.716-.229-8.494-.45C64.712 5.21 62.08 5 59.48 5c-5.028 0-8.697.81-11.899 2.629L47 7.96l-.584-.331C43.214 5.81 39.546 5 34.52 5c-2.606 0-5.235.21-8.017.432-2.78.221-5.652.45-8.494.45-.65 0-1.27-.012-1.876-.035.2 1.203.884 3.079 3.147 4.202l2.008.999-1.967 1.073c-6.534 3.574-8.139 10.617-9.995 18.771C8.444 34.784 7.53 38.793 6 42.67c.238.022.497.039.772.039 1.89 0 3.305-.69 4.2-2.049l.946-1.437 1 1.4c2.813 3.94 4.455 9.303 4.88 15.936.31 4.85-.074 10.367-1.081 15.672 1.365-.066 3.48-.48 4.947-2.217l.972-1.152.884 1.219C23.662 70.278 37.514 89.274 47 98c9.49-8.73 23.336-27.722 23.478-27.919l.886-1.219.972 1.152c1.465 1.737 3.578 2.15 4.944 2.217-.78-4.064-1.516-9.721-1.197-15.66.357-6.658 1.959-12.022 4.76-15.948" fill="#131111"/><path fill="#FFFFFE" d="M49 53.117l7.119-3.45v-9.588L66 35l-4.634 12.605-.057.157L60.147 60 49 55.673v-2.556M46 53.147l-7.172-3.481v-9.608L29 35l4.686 12.76L34.844 60 46 55.661v-2.514M48.01 57L38 60.6l2.31 6.4h15.379L58 60.594 48.01 57"/><path d="M53.446 36.67v-8.463h2.437v3.689c4.043-1.228 8.123-2.515 10.117-3.21L59.192 15l-11.79 2.859L35.096 15 29 28.686c1.994.695 6.08 1.984 10.125 3.211v-3.69h2.436v8.464h-.012V46h11.9v-9.33h-.003" fill="#FFFFFE"/></g></svg>