<svg width="13" height="12" viewBox="0 0 13 12" xmlns="http://www.w3.org/2000/svg"><g fill="#27A63B" fill-rule="nonzero"><path d="M.27.75h12.46c.149 0 .27-.168.27-.375S12.879 0 12.73 0H.27C.122 0 0 .168 0 .375S.121.75.27.75zM12.73 2.25H.27c-.149 0-.27.168-.27.375S.121 3 .27 3h12.46c.149 0 .27-.168.27-.375s-.121-.375-.27-.375zM12.73 4.5H.27c-.149 0-.27.168-.27.375s.121.375.27.375h12.46c.149 0 .27-.168.27-.375s-.121-.375-.27-.375zM12.73 6.75H.27c-.149 0-.27.168-.27.375s.121.375.27.375h12.46c.149 0 .27-.168.27-.375s-.121-.375-.27-.375zM12.73 9H.27C.122 9 0 9.168 0 9.375s.121.375.27.375h12.46c.149 0 .27-.168.27-.375S12.879 9 12.73 9zM8.938 11.25H.27c-.15 0-.271.168-.271.375S.121 12 .27 12h8.667c.15 0 .271-.168.271-.375s-.121-.375-.27-.375z"/></g></svg>