<svg width="40" height="40" viewBox="0 0 40 40" xmlns="http://www.w3.org/2000/svg"><g fill="#FFF" fill-rule="nonzero"><path d="M16.134 28.908c-.336 0-.84-.169-1.176-.337-.672-.336-1.176-1.176-1.176-2.016V13.277c0-.84.504-1.68 1.176-2.016.672-.337 1.68-.337 2.353.168l10.084 6.554c.672.504 1.008 1.177 1.008 2.017 0 .84-.336 1.513-1.008 2.017L17.311 28.57c-.168.168-.672.337-1.177.337zm0-16.135h-.336c-.168.168-.336.336-.336.504v13.278c0 .168.168.504.336.504.168.168.505.168.673 0l10.084-6.555c.168-.168.336-.336.336-.504 0-.168-.168-.336-.336-.504L16.47 12.94c0-.168-.168-.168-.337-.168z"/><path d="M20 40A19.94 19.94 0 010 20C0 8.908 8.908 0 20 0s20 8.908 20 20-8.908 20-20 20zm0-38.32C9.916 1.68 1.68 9.917 1.68 20S9.917 38.32 20 38.32 38.32 30.083 38.32 20 30.083 1.68 20 1.68z"/></g></svg>