<svg width="19" height="16" viewBox="0 0 19 16" xmlns="http://www.w3.org/2000/svg"><g fill="#27A63B" fill-rule="nonzero"><path d="M9.5 4c-.1 0-.2-.04-.275-.117L6.113.683A.412.412 0 016.03.246.388.388 0 016.39 0h6.222c.157 0 .3.098.36.247a.41.41 0 01-.084.436l-3.112 3.2A.385.385 0 019.5 4zM7 1l2 2 2-2H7z"/><path d="M14.457 16H4.544a.407.407 0 01-.413-.4V5.755l-1.935.624a.416.416 0 01-.5-.2L.044 2.98a.39.39 0 01-.02-.317.413.413 0 01.226-.23l5.783-2.4A.436.436 0 016.196 0h6.609c.055 0 .111.011.163.033l5.782 2.4a.404.404 0 01.225.23.393.393 0 01-.018.317l-1.652 3.2a.416.416 0 01-.5.2l-1.935-.625V15.6c0 .22-.185.4-.413.4zm-9.49-1h9.065V5.278c0-.125.064-.243.172-.316a.425.425 0 01.37-.053l2.134.671L18 3.14 12.711 1H6.29L1 3.139l1.292 2.44 2.134-.67a.429.429 0 01.37.053c.108.073.172.19.172.316V15z"/><path d="M8 10h-.667C7.15 10 7 9.82 7 9.6c0-.22.15-.4.333-.4H8c.183 0 .333-.18.333-.4 0-.22-.15-.4-.333-.4h-.667C7.15 8.4 7 8.22 7 8V6.4c0-.222.15-.4.333-.4h1.334C8.85 6 9 6.18 9 6.4c0 .22-.15.4-.333.4h-1v.8H8c.551 0 1 .538 1 1.2 0 .662-.449 1.2-1 1.2zM11.667 10c-.184 0-.334-.18-.334-.4v-.4h-1c-.123 0-.236-.082-.293-.211a.467.467 0 01.016-.41l1.333-2.401c.103-.185.31-.232.462-.111.153.122.195.37.093.554L10.957 8.4h.71c.184 0 .333.179.333.4v.8c0 .22-.15.4-.333.4z"/></g></svg>