<svg width="28" height="24" viewBox="0 0 28 24" xmlns="http://www.w3.org/2000/svg"><g fill="#000" fill-rule="nonzero"><path d="M20.417 18.286H.584A.578.578 0 010 17.714V.571C0 .256.262 0 .584 0h19.833c.322 0 .583.256.583.571v17.143a.578.578 0 01-.583.572zm-19.25-1.143h18.667v-16H1.167v16z"/><path d="M20.417 18.286a.585.585 0 01-.523-.316L13.966 6.353 9.84 13.426a.585.585 0 01-.43.284.596.596 0 01-.49-.163L5.933 10.62l-4.858 7.405a.59.59 0 01-.806.171.565.565 0 01-.175-.79l5.25-8a.59.59 0 01.902-.094l2.96 2.9 4.288-7.352a.571.571 0 01.522-.288c.216.006.41.127.507.316l6.416 12.571a.566.566 0 01-.261.767.582.582 0 01-.26.06zM6.417 8C4.809 8 3.5 6.718 3.5 5.143c0-1.575 1.31-2.857 2.917-2.857 1.608 0 2.917 1.282 2.917 2.857C9.334 6.718 8.024 8 6.417 8zm0-4.571c-.965 0-1.75.769-1.75 1.714s.785 1.714 1.75 1.714 1.75-.769 1.75-1.714-.785-1.714-1.75-1.714z"/><path d="M19.249 24a.583.583 0 01-.282-.072l-10.5-5.714a.564.564 0 01-.227-.777.59.59 0 01.794-.222l10 5.442 7.602-12.766-6.542-4.273a.564.564 0 01-.162-.792.591.591 0 01.808-.159l7 4.572a.565.565 0 01.18.763l-8.166 13.715a.586.586 0 01-.505.283z"/></g></svg>